<svg xmlns="http://www.w3.org/2000/svg" width="256" height="256" viewBox="0 0 256 256">
<polygon points="128,150 228,200 128,250 28,200" fill="#E9E0CC"/>
<polygon points="28,200 128,250 128,253 28,203" fill="#CFC8B8"/>
<polygon points="228,200 128,250 128,253 228,203" fill="#B3AEA3"/>
<polygon points="128,155 218,200 128,245 38,200" fill="#BCBB8C"/>
<polygon points="126.8,150 128,150.6 128,144.6 126.8,144" fill="#9CA6BE"/>
<polygon points="129.2,150 128,150.6 128,144.6 129.2,144" fill="#7B849A"/>
<polygon points="128,143.4 129.2,144 128,144.6 126.8,144" fill="#B4BBCE"/>
<polygon points="126.8,150 128,150.6 128,144.6 126.8,144" fill="#9CA6BE"/>
<polygon points="129.2,150 128,150.6 128,144.6 129.2,144" fill="#7B849A"/>
<polygon points="128,143.4 129.2,144 128,144.6 126.8,144" fill="#B4BBCE"/>
<polygon points="136.8,155 138,155.6 138,149.6 136.8,149" fill="#9CA6BE"/>
<polygon points="139.2,155 138,155.6 138,149.6 139.2,149" fill="#7B849A"/>
<polygon points="138,148.4 139.2,149 138,149.6 136.8,149" fill="#B4BBCE"/>
<polygon points="116.8,155 118,155.6 118,149.6 116.8,149" fill="#9CA6BE"/>
<polygon points="119.2,155 118,155.6 118,149.6 119.2,149" fill="#7B849A"/>
<polygon points="118,148.4 119.2,149 118,149.6 116.8,149" fill="#B4BBCE"/>
<polygon points="146.8,160 148,160.6 148,154.6 146.8,154" fill="#9CA6BE"/>
<polygon points="149.2,160 148,160.6 148,154.6 149.2,154" fill="#7B849A"/>
<polygon points="148,153.4 149.2,154 148,154.6 146.8,154" fill="#B4BBCE"/>
<polygon points="106.8,160 108,160.6 108,154.6 106.8,154" fill="#9CA6BE"/>
<polygon points="109.2,160 108,160.6 108,154.6 109.2,154" fill="#7B849A"/>
<polygon points="108,153.4 109.2,154 108,154.6 106.8,154" fill="#B4BBCE"/>
<polygon points="156.8,165 158,165.6 158,159.6 156.8,159" fill="#9CA6BE"/>
<polygon points="159.2,165 158,165.6 158,159.6 159.2,159" fill="#7B849A"/>
<polygon points="158,158.4 159.2,159 158,159.6 156.8,159" fill="#B4BBCE"/>
<polygon points="96.8,165 98,165.6 98,159.6 96.8,159" fill="#9CA6BE"/>
<polygon points="99.2,165 98,165.6 98,159.6 99.2,159" fill="#7B849A"/>
<polygon points="98,158.4 99.2,159 98,159.6 96.8,159" fill="#B4BBCE"/>
<polygon points="166.8,170 168,170.6 168,164.6 166.8,164" fill="#9CA6BE"/>
<polygon points="169.2,170 168,170.6 168,164.6 169.2,164" fill="#7B849A"/>
<polygon points="168,163.4 169.2,164 168,164.6 166.8,164" fill="#B4BBCE"/>
<polygon points="86.8,170 88,170.6 88,164.6 86.8,164" fill="#9CA6BE"/>
<polygon points="89.2,170 88,170.6 88,164.6 89.2,164" fill="#7B849A"/>
<polygon points="88,163.4 89.2,164 88,164.6 86.8,164" fill="#B4BBCE"/>
<polygon points="176.8,175 178,175.6 178,169.6 176.8,169" fill="#9CA6BE"/>
<polygon points="179.2,175 178,175.6 178,169.6 179.2,169" fill="#7B849A"/>
<polygon points="178,168.4 179.2,169 178,169.6 176.8,169" fill="#B4BBCE"/>
<polygon points="76.8,175 78,175.6 78,169.6 76.8,169" fill="#9CA6BE"/>
<polygon points="79.2,175 78,175.6 78,169.6 79.2,169" fill="#7B849A"/>
<polygon points="78,168.4 79.2,169 78,169.6 76.8,169" fill="#B4BBCE"/>
<polygon points="186.8,180 188,180.6 188,174.6 186.8,174" fill="#9CA6BE"/>
<polygon points="189.2,180 188,180.6 188,174.6 189.2,174" fill="#7B849A"/>
<polygon points="188,173.4 189.2,174 188,174.6 186.8,174" fill="#B4BBCE"/>
<polygon points="66.8,180 68,180.6 68,174.6 66.8,174" fill="#9CA6BE"/>
<polygon points="69.2,180 68,180.6 68,174.6 69.2,174" fill="#7B849A"/>
<polygon points="68,173.4 69.2,174 68,174.6 66.8,174" fill="#B4BBCE"/>
<polygon points="196.8,185 198,185.6 198,179.6 196.8,179" fill="#9CA6BE"/>
<polygon points="199.2,185 198,185.6 198,179.6 199.2,179" fill="#7B849A"/>
<polygon points="198,178.4 199.2,179 198,179.6 196.8,179" fill="#B4BBCE"/>
<polygon points="56.8,185 58,185.6 58,179.6 56.8,179" fill="#9CA6BE"/>
<polygon points="59.2,185 58,185.6 58,179.6 59.2,179" fill="#7B849A"/>
<polygon points="58,178.4 59.2,179 58,179.6 56.8,179" fill="#B4BBCE"/>
<polygon points="206.8,190 208,190.6 208,184.6 206.8,184" fill="#9CA6BE"/>
<polygon points="209.2,190 208,190.6 208,184.6 209.2,184" fill="#7B849A"/>
<polygon points="208,183.4 209.2,184 208,184.6 206.8,184" fill="#B4BBCE"/>
<polygon points="46.8,190 48,190.6 48,184.6 46.8,184" fill="#9CA6BE"/>
<polygon points="49.2,190 48,190.6 48,184.6 49.2,184" fill="#7B849A"/>
<polygon points="48,183.4 49.2,184 48,184.6 46.8,184" fill="#B4BBCE"/>
<polygon points="216.8,195 218,195.6 218,189.6 216.8,189" fill="#9CA6BE"/>
<polygon points="219.2,195 218,195.6 218,189.6 219.2,189" fill="#7B849A"/>
<polygon points="218,188.4 219.2,189 218,189.6 216.8,189" fill="#B4BBCE"/>
<polygon points="36.8,195 38,195.6 38,189.6 36.8,189" fill="#9CA6BE"/>
<polygon points="39.2,195 38,195.6 38,189.6 39.2,189" fill="#7B849A"/>
<polygon points="38,188.4 39.2,189 38,189.6 36.8,189" fill="#B4BBCE"/>
<polygon points="226.8,200 228,200.6 228,194.6 226.8,194" fill="#9CA6BE"/>
<polygon points="229.2,200 228,200.6 228,194.6 229.2,194" fill="#7B849A"/>
<polygon points="228,193.4 229.2,194 228,194.6 226.8,194" fill="#B4BBCE"/>
<polygon points="26.8,200 28,200.6 28,194.6 26.8,194" fill="#9CA6BE"/>
<polygon points="29.2,200 28,200.6 28,194.6 29.2,194" fill="#7B849A"/>
<polygon points="28,193.4 29.2,194 28,194.6 26.8,194" fill="#B4BBCE"/>
<polyline points="128,145 228,195" fill="none" stroke="#9CA6BE" stroke-width="0.9" stroke-linecap="round" stroke-linejoin="round"/>
<polyline points="128,145 28,195" fill="none" stroke="#9CA6BE" stroke-width="0.9" stroke-linecap="round" stroke-linejoin="round"/>
<polygon points="96,176 126,161 145.25,166.78 205.25,196.78 175.25,211.78 156,206" fill="#121829" opacity="0.2"/>
<polygon points="96,176 156,206 156,188 96,158" fill="#7A8C4F"/>
<polygon points="186,191 156,206 156,188 186,173" fill="#617046"/>
<polygon points="126,143 186,173 156,188 96,158" fill="#9AA879"/>
<polygon points="99.99,173 105.32,175.67 105.32,167.67 99.99,165" fill="#5EA0C7"/>
<polygon points="109.32,177.67 114.66,180.34 114.66,172.34 109.32,169.67" fill="#5EA0C7"/>
<polygon points="118.66,182.34 123.99,185 123.99,177 118.66,174.34" fill="#5EA0C7"/>
<polygon points="127.99,187 133.32,189.67 133.32,181.67 127.99,179" fill="#5EA0C7"/>
<polygon points="137.32,191.67 142.66,194.34 142.66,186.34 137.32,183.67" fill="#5EA0C7"/>
<polygon points="146.66,196.34 151.99,199 151.99,191 146.66,188.34" fill="#5EA0C7"/>
<polygon points="182.01,188 177.34,190.34 177.34,182.34 182.01,180" fill="#5B8DB1"/>
<polygon points="173.34,192.34 168.68,194.67 168.68,186.67 173.34,184.34" fill="#5B8DB1"/>
<polygon points="164.68,196.67 160.01,199 160.01,191 164.68,188.67" fill="#5B8DB1"/>
<polygon points="126,141 190,173 173,172.5 109,140.5" fill="#707D58"/>
<polygon points="92,158 156,190 173,172.5 109,140.5" fill="#606F46"/>
<polygon points="186,173 156,188 171,171.5" fill="#49553D"/>
<polyline points="109,140.5 173,172.5" fill="none" stroke="#98A187" stroke-width="1.6" stroke-linecap="round" stroke-linejoin="round"/>
<polygon points="88,182 136,206 108,220 60,196" fill="#DCC393"/>
<polyline points="98,201 98,171" fill="none" stroke="#9CA6BE" stroke-width="1.4" stroke-linecap="round" stroke-linejoin="round"/>
<path d="M98.00 171.00 q6 -3 12 1 q-1 5 1 9 q-6 -3 -13 0 Z" fill="#E5484D"/>
<path d="M98.00 171.00 q6 -3 12 1 l0 3 q-6 -3 -12 -1 Z" fill="#ED7F82"/>
<polygon points="142.5,218.75 144,219.5 144,189.5 142.5,188.75" fill="#8E6443"/>
<polygon points="145.5,218.75 144,219.5 144,189.5 145.5,188.75" fill="#70523D"/>
<polygon points="144,188 145.5,188.75 144,189.5 142.5,188.75" fill="#A98970"/>
<polygon points="152.5,223.75 154,224.5 154,194.5 152.5,193.75" fill="#8E6443"/>
<polygon points="155.5,223.75 154,224.5 154,194.5 155.5,193.75" fill="#70523D"/>
<polygon points="154,193 155.5,193.75 154,194.5 152.5,193.75" fill="#A98970"/>
<polygon points="132.5,223.75 134,224.5 134,194.5 132.5,193.75" fill="#8E6443"/>
<polygon points="135.5,223.75 134,224.5 134,194.5 135.5,193.75" fill="#70523D"/>
<polygon points="134,193 135.5,193.75 134,194.5 132.5,193.75" fill="#A98970"/>
<polygon points="142.5,228.75 144,229.5 144,199.5 142.5,198.75" fill="#8E6443"/>
<polygon points="145.5,228.75 144,229.5 144,199.5 145.5,198.75" fill="#70523D"/>
<polygon points="144,198 145.5,198.75 144,199.5 142.5,198.75" fill="#A98970"/>
<polygon points="129,193.5 144,201 144,193 129,185.5" fill="#B98A5E"/>
<polygon points="159,193.5 144,201 144,193 159,185.5" fill="#916F51"/>
<polygon points="144,178 159,185.5 144,193 129,185.5" fill="#CAA685"/>
<polygon points="144,176 125,185.5 134.5,184.25 153.5,174.75" fill="#6B7857"/>
<polygon points="129,185.5 144,193 136.5,183.25" fill="#4F5C40"/>
<polygon points="163,185.5 144,195 134.5,184.25 153.5,174.75" fill="#4E5A3F"/>
<polyline points="153.5,174.75 134.5,184.25" fill="none" stroke="#949E85" stroke-width="1.6" stroke-linecap="round" stroke-linejoin="round"/>
<polygon points="101,228 119,237 119,230 101,221" fill="#70804B"/>
<polygon points="128,232.5 119,237 119,230 128,225.5" fill="#596743"/>
<polygon points="110,216.5 128,225.5 119,230 101,221" fill="#929E76"/>
<polygon points="103.69,225.51 116.29,231.81 116.29,229.22 103.69,222.92" fill="#56627F"/>
<ellipse cx="104.96" cy="229.68" rx="2.4" ry="2.4" fill="#121829"/>
<ellipse cx="115.04" cy="234.72" rx="2.4" ry="2.4" fill="#121829"/>
<ellipse cx="50" cy="197.5" rx="4.2" ry="2.4" fill="#DCC393"/>
<ellipse cx="57" cy="201" rx="4.2" ry="2.4" fill="#DCC393"/>
<ellipse cx="64" cy="204.5" rx="4.2" ry="2.4" fill="#DCC393"/>
<ellipse cx="71" cy="208" rx="4.2" ry="2.4" fill="#DCC393"/>
<ellipse cx="78" cy="211.5" rx="4.2" ry="2.4" fill="#DCC393"/>
</svg>
