<svg xmlns="http://www.w3.org/2000/svg" width="256" height="256" viewBox="0 0 256 256">
<polygon points="128,150 228,200 128,250 28,200" fill="#E9E0CC"/>
<polygon points="28,200 128,250 128,253 28,203" fill="#CFC8B8"/>
<polygon points="228,200 128,250 128,253 228,203" fill="#B3AEA3"/>
<polygon points="128,155 218,200 128,245 38,200" fill="#D3D9E6"/>
<polygon points="128,159 210,200 128,241 46,200" fill="#E0E4EE"/>
<polygon points="98,175 128,160 210.5,184.75 240.5,199.75 210.5,214.75 128,190" fill="#121829" opacity="0.22"/>
<polygon points="98,175 128,190 128,66 98,51" fill="#56A1E6"/>
<polygon points="158,175 128,190 128,66 158,51" fill="#3E71A4"/>
<polygon points="128,36 158,51 128,66 98,51" fill="#9AC7F0"/>
<polygon points="99.99,168 125.99,181 125.99,176.5 99.99,163.5" fill="#91C2EF"/>
<polygon points="156.01,168 130.01,181 130.01,176.5 156.01,163.5" fill="#568EC7"/>
<polygon points="99.99,159 125.99,172 125.99,167.5 99.99,154.5" fill="#91C2EF"/>
<polygon points="156.01,159 130.01,172 130.01,167.5 156.01,154.5" fill="#568EC7"/>
<polygon points="99.99,150 125.99,163 125.99,158.5 99.99,145.5" fill="#91C2EF"/>
<polygon points="156.01,150 130.01,163 130.01,158.5 156.01,145.5" fill="#568EC7"/>
<polygon points="99.99,141 125.99,154 125.99,149.5 99.99,136.5" fill="#91C2EF"/>
<polygon points="156.01,141 130.01,154 130.01,149.5 156.01,136.5" fill="#568EC7"/>
<polygon points="99.99,132 125.99,145 125.99,140.5 99.99,127.5" fill="#91C2EF"/>
<polygon points="156.01,132 130.01,145 130.01,140.5 156.01,127.5" fill="#568EC7"/>
<polygon points="99.99,123 125.99,136 125.99,131.5 99.99,118.5" fill="#91C2EF"/>
<polygon points="156.01,123 130.01,136 130.01,131.5 156.01,118.5" fill="#568EC7"/>
<polygon points="99.99,114 125.99,127 125.99,122.5 99.99,109.5" fill="#91C2EF"/>
<polygon points="156.01,114 130.01,127 130.01,122.5 156.01,109.5" fill="#568EC7"/>
<polygon points="99.99,105 125.99,118 125.99,113.5 99.99,100.5" fill="#91C2EF"/>
<polygon points="156.01,105 130.01,118 130.01,113.5 156.01,100.5" fill="#568EC7"/>
<polygon points="99.99,96 125.99,109 125.99,104.5 99.99,91.5" fill="#91C2EF"/>
<polygon points="156.01,96 130.01,109 130.01,104.5 156.01,91.5" fill="#568EC7"/>
<polygon points="99.99,87 125.99,100 125.99,95.5 99.99,82.5" fill="#91C2EF"/>
<polygon points="156.01,87 130.01,100 130.01,95.5 156.01,82.5" fill="#568EC7"/>
<polygon points="99.99,78 125.99,91 125.99,86.5 99.99,73.5" fill="#91C2EF"/>
<polygon points="156.01,78 130.01,91 130.01,86.5 156.01,73.5" fill="#568EC7"/>
<polygon points="99.99,69 125.99,82 125.99,77.5 99.99,64.5" fill="#91C2EF"/>
<polygon points="156.01,69 130.01,82 130.01,77.5 156.01,64.5" fill="#568EC7"/>
<polygon points="99.99,60 125.99,73 125.99,68.5 99.99,55.5" fill="#91C2EF"/>
<polygon points="156.01,60 130.01,73 130.01,68.5 156.01,55.5" fill="#568EC7"/>
<polygon points="116,46 128,52 128,44 116,38" fill="#9CA6BE"/>
<polygon points="140,46 128,52 128,44 140,38" fill="#7B849A"/>
<polygon points="128,32 140,38 128,44 116,38" fill="#B4BBCE"/>
<polyline points="128,38 128,24" fill="none" stroke="#9CA6BE" stroke-width="1.5" stroke-linecap="round" stroke-linejoin="round"/>
<circle cx="128" cy="23" r="2.2" fill="#E5484D"/>
<polygon points="136,196 164,182 224.5,200.15 258.5,217.15 230.5,231.15 170,213" fill="#121829" opacity="0.2"/>
<polygon points="136,196 170,213 170,125 136,108" fill="#38ACA8"/>
<polygon points="198,199 170,213 170,125 198,111" fill="#2B787C"/>
<polygon points="164,94 198,111 170,125 136,108" fill="#7EC9C6"/>
<polygon points="138.99,193.5 142.49,195.25 142.49,115.25 138.99,113.5" fill="#74C5C2"/>
<polygon points="144.99,196.5 148.49,198.25 148.49,118.25 144.99,116.5" fill="#74C5C2"/>
<polygon points="150.99,199.5 154.49,201.25 154.49,121.25 150.99,119.5" fill="#74C5C2"/>
<polygon points="156.99,202.5 160.49,204.25 160.49,124.25 156.99,122.5" fill="#74C5C2"/>
<polygon points="162.99,205.5 166.49,207.25 166.49,127.25 162.99,125.5" fill="#74C5C2"/>
<polygon points="195.01,196.5 191.51,198.25 191.51,118.25 195.01,116.5" fill="#2E8788"/>
<polygon points="189.01,199.5 185.51,201.25 185.51,121.25 189.01,119.5" fill="#2E8788"/>
<polygon points="183.01,202.5 179.51,204.25 179.51,124.25 183.01,122.5" fill="#2E8788"/>
<polygon points="177.01,205.5 173.51,207.25 173.51,127.25 177.01,125.5" fill="#2E8788"/>
<polygon points="132,108 170,127 170,124 132,105" fill="#D3D9E6"/>
<polygon points="202,111 170,127 170,124 202,108" fill="#A5ABB9"/>
<polygon points="164,89 202,108 170,124 132,105" fill="#DEE2EC"/>
<polygon points="70,209 100,194 119.25,199.78 171.25,225.78 141.25,240.78 122,235" fill="#121829" opacity="0.2"/>
<polygon points="70,209 122,235 122,211 70,185" fill="#D3D9E6"/>
<polygon points="152,220 122,235 122,211 152,196" fill="#A5ABB9"/>
<polygon points="100,170 152,196 122,211 70,185" fill="#DEE2EC"/>
<polygon points="73.99,209 77.39,210.7 77.39,194.7 73.99,193" fill="#FFFFFF"/>
<polygon points="77.39,210.7 80.99,212.5 80.99,196.5 77.39,194.7" fill="#949EB2"/>
<polygon points="80.99,212.5 84.39,214.2 84.39,198.2 80.99,196.5" fill="#FFFFFF"/>
<polygon points="84.39,214.2 87.99,216 87.99,200 84.39,198.2" fill="#949EB2"/>
<polygon points="87.99,216 91.39,217.7 91.39,201.7 87.99,200" fill="#FFFFFF"/>
<polygon points="91.39,217.7 94.99,219.5 94.99,203.5 91.39,201.7" fill="#949EB2"/>
<polygon points="94.99,219.5 98.39,221.2 98.39,205.2 94.99,203.5" fill="#FFFFFF"/>
<polygon points="98.39,221.2 101.99,223 101.99,207 98.39,205.2" fill="#949EB2"/>
<polygon points="101.99,223 105.39,224.71 105.39,208.71 101.99,207" fill="#FFFFFF"/>
<polygon points="105.39,224.71 108.99,226.5 108.99,210.5 105.39,208.71" fill="#949EB2"/>
<polygon points="108.99,226.5 112.39,228.21 112.39,212.21 108.99,210.5" fill="#FFFFFF"/>
<polygon points="112.39,228.21 115.99,230 115.99,214 112.39,212.21" fill="#949EB2"/>
<polygon points="115.99,230 119.39,231.71 119.39,215.71 115.99,214" fill="#FFFFFF"/>
<polygon points="119.39,231.71 122.99,233.5 122.99,217.5 119.39,215.71" fill="#949EB2"/>
<polygon points="66,185 122,213 122,209 66,181" fill="#E5E8F0"/>
<polygon points="156,196 122,213 122,209 156,192" fill="#B2B6C0"/>
<polygon points="100,164 156,192 122,209 66,181" fill="#EBEEF4"/>
<polygon points="63,210.5 119,238.5 119,236.5 63,208.5" fill="#FFFFFF"/>
<polygon points="124,236 119,238.5 119,236.5 124,234" fill="#C6C8CC"/>
<polygon points="68,206 124,234 119,236.5 63,208.5" fill="#FFFFFF"/>
<polygon points="100,164 156,192 139,191.5 83,163.5" fill="#A6AFC4"/>
<polygon points="66,181 122,209 139,191.5 83,163.5" fill="#9CA6BE"/>
<polygon points="152,192 122,207 137,190.5" fill="#737B91"/>
<polyline points="83,163.5 139,191.5" fill="none" stroke="#BFC5D5" stroke-width="1.6" stroke-linecap="round" stroke-linejoin="round"/>
<circle cx="96" cy="187" r="5.2" fill="#D8901A"/>
<circle cx="96" cy="187" r="3.6" fill="#F6B93B"/>
<ellipse cx="130.2" cy="240.61" rx="6.12" ry="3.04" fill="#121829" opacity="0.18"/>
<rect x="126.88" y="233" width="2.24" height="7" rx="1" fill="#8E6443"/>
<polygon points="121,235.1 135,235.1 128,226.7" fill="#5AAC64"/>
<polygon points="122.4,230.2 133.6,230.2 128,222.5" fill="#67C66F"/>
<polygon points="123.8,225.3 132.2,225.3 128,218.3" fill="#5AAC64"/>
<polygon points="128,218.3 125.9,223.2 128,222.5" fill="#95D79A"/>
<ellipse cx="48.36" cy="199.66" rx="6.56" ry="3.25" fill="#121829" opacity="0.18"/>
<rect x="44.8" y="191.5" width="2.4" height="7.5" rx="1" fill="#8E6443"/>
<polygon points="38.5,193.75 53.5,193.75 46,184.75" fill="#5AAC64"/>
<polygon points="40,188.5 52,188.5 46,180.25" fill="#67C66F"/>
<polygon points="41.5,183.25 50.5,183.25 46,175.75" fill="#5AAC64"/>
<polygon points="46,175.75 43.75,181 46,180.25" fill="#95D79A"/>
</svg>
