<svg xmlns="http://www.w3.org/2000/svg" width="256" height="256" viewBox="0 0 256 256">
<polygon points="128,150 228,200 128,250 28,200" fill="#E9E0CC"/>
<polygon points="28,200 128,250 128,253 28,203" fill="#CFC8B8"/>
<polygon points="228,200 128,250 128,253 228,203" fill="#B3AEA3"/>
<polygon points="128,155 218,200 128,245 38,200" fill="#D3D9E6"/>
<polygon points="128,159 210,200 128,241 46,200" fill="#E0E4EE"/>
<polygon points="74,189 128,162 166.5,173.55 220.5,200.55 166.5,227.55 128,216" fill="#121829" opacity="0.2"/>
<polygon points="74,189 128,216 128,162 74,135" fill="#FFFFFF"/>
<polygon points="182,189 128,216 128,162 182,135" fill="#C4CAD8"/>
<polygon points="128,108 182,135 128,162 74,135" fill="#D3D9E6"/>
<polygon points="78.99,185.5 85.49,188.75 85.49,180.75 78.99,177.5" fill="#81CEF1"/>
<polygon points="78.99,173.5 85.49,176.75 85.49,168.75 78.99,165.5" fill="#81CEF1"/>
<polygon points="78.99,161.5 85.49,164.75 85.49,156.75 78.99,153.5" fill="#F6B93B"/>
<polygon points="78.99,149.5 85.49,152.75 85.49,144.75 78.99,141.5" fill="#81CEF1"/>
<polygon points="91.49,191.75 97.99,195 97.99,187 91.49,183.75" fill="#81CEF1"/>
<polygon points="91.49,179.75 97.99,183 97.99,175 91.49,171.75" fill="#81CEF1"/>
<polygon points="91.49,167.75 97.99,171 97.99,163 91.49,159.75" fill="#81CEF1"/>
<polygon points="91.49,155.75 97.99,159 97.99,151 91.49,147.75" fill="#81CEF1"/>
<polygon points="103.99,198 110.49,201.25 110.49,193.25 103.99,190" fill="#81CEF1"/>
<polygon points="103.99,186 110.49,189.25 110.49,181.25 103.99,178" fill="#81CEF1"/>
<polygon points="103.99,174 110.49,177.25 110.49,169.25 103.99,166" fill="#81CEF1"/>
<polygon points="103.99,162 110.49,165.25 110.49,157.25 103.99,154" fill="#81CEF1"/>
<polygon points="116.49,204.25 122.99,207.5 122.99,199.5 116.49,196.25" fill="#81CEF1"/>
<polygon points="116.49,192.25 122.99,195.5 122.99,187.5 116.49,184.25" fill="#F6B93B"/>
<polygon points="116.49,180.25 122.99,183.5 122.99,175.5 116.49,172.25" fill="#81CEF1"/>
<polygon points="116.49,168.25 122.99,171.5 122.99,163.5 116.49,160.25" fill="#81CEF1"/>
<polygon points="177.01,185.5 170.51,188.75 170.51,180.75 177.01,177.5" fill="#5EA0C7"/>
<polygon points="177.01,173.5 170.51,176.75 170.51,168.75 177.01,165.5" fill="#5EA0C7"/>
<polygon points="177.01,161.5 170.51,164.75 170.51,156.75 177.01,153.5" fill="#5EA0C7"/>
<polygon points="177.01,149.5 170.51,152.75 170.51,144.75 177.01,141.5" fill="#5EA0C7"/>
<polygon points="164.51,191.75 158.01,195 158.01,187 164.51,183.75" fill="#5EA0C7"/>
<polygon points="164.51,179.75 158.01,183 158.01,175 164.51,171.75" fill="#5EA0C7"/>
<polygon points="164.51,167.75 158.01,171 158.01,163 164.51,159.75" fill="#5EA0C7"/>
<polygon points="164.51,155.75 158.01,159 158.01,151 164.51,147.75" fill="#5EA0C7"/>
<polygon points="152.01,198 145.51,201.25 145.51,193.25 152.01,190" fill="#5EA0C7"/>
<polygon points="152.01,186 145.51,189.25 145.51,181.25 152.01,178" fill="#5EA0C7"/>
<polygon points="152.01,174 145.51,177.25 145.51,169.25 152.01,166" fill="#5EA0C7"/>
<polygon points="152.01,162 145.51,165.25 145.51,157.25 152.01,154" fill="#5EA0C7"/>
<polygon points="139.51,204.25 133.01,207.5 133.01,199.5 139.51,196.25" fill="#5EA0C7"/>
<polygon points="139.51,192.25 133.01,195.5 133.01,187.5 139.51,184.25" fill="#5EA0C7"/>
<polygon points="139.51,180.25 133.01,183.5 133.01,175.5 139.51,172.25" fill="#5EA0C7"/>
<polygon points="139.51,168.25 133.01,171.5 133.01,163.5 139.51,160.25" fill="#5EA0C7"/>
<polygon points="73.99,138 127.99,165 127.99,162 73.99,135" fill="#E5484D"/>
<ellipse cx="128" cy="134.9" rx="24.04" ry="12.02" fill="#56627F"/>
<polygon points="127,130.5 129,131.5 121,135.5 119,134.5" fill="#FFFFFF"/>
<polygon points="135,134.5 137,135.5 129,139.5 127,138.5" fill="#FFFFFF"/>
<polygon points="125.5,133.25 131.5,136.25 130.5,136.75 124.5,133.75" fill="#FFFFFF"/>
<polygon points="124,218 164,198 184.62,204.19 208.62,216.19 168.62,236.19 148,230" fill="#121829" opacity="0.2"/>
<polygon points="124,218 148,230 148,202 124,190" fill="#FFFFFF"/>
<polygon points="188,210 148,230 148,202 188,182" fill="#C4CAD8"/>
<polygon points="164,170 188,182 148,202 124,190" fill="#D3D9E6"/>
<polygon points="184.01,207 176.68,210.67 176.68,203.17 184.01,199.5" fill="#5EA0C7"/>
<polygon points="184.01,195.5 176.68,199.17 176.68,191.67 184.01,188" fill="#5EA0C7"/>
<polygon points="171.68,213.17 164.34,216.84 164.34,209.34 171.68,205.67" fill="#5EA0C7"/>
<polygon points="171.68,201.67 164.34,205.34 164.34,197.84 171.68,194.17" fill="#5EA0C7"/>
<polygon points="159.34,219.34 152.01,223 152.01,215.5 159.34,211.84" fill="#5EA0C7"/>
<polygon points="159.34,207.84 152.01,211.5 152.01,204 159.34,200.34" fill="#5EA0C7"/>
<polygon points="131.99,214 139.99,218 139.99,202 131.99,198" fill="#E5484D"/>
<polygon points="127.99,208 143.99,216 143.99,208 127.99,200" fill="#E5484D"/>
<polygon points="72,186 102,201 102,199 72,184" fill="#E5484D"/>
<polygon points="112,196 102,201 102,199 112,194" fill="#B23C44"/>
<polygon points="82,179 112,194 102,199 72,184" fill="#EB7478"/>
<polygon points="74.5,198.75 76,199.5 76,187.5 74.5,186.75" fill="#9CA6BE"/>
<polygon points="77.5,198.75 76,199.5 76,187.5 77.5,186.75" fill="#7B849A"/>
<polygon points="76,186 77.5,186.75 76,187.5 74.5,186.75" fill="#B4BBCE"/>
<polygon points="98.5,210.75 100,211.5 100,199.5 98.5,198.75" fill="#9CA6BE"/>
<polygon points="101.5,210.75 100,211.5 100,199.5 101.5,198.75" fill="#7B849A"/>
<polygon points="100,198 101.5,198.75 100,199.5 98.5,198.75" fill="#B4BBCE"/>
<polygon points="60,204.5 80,214.5 80,205.5 60,195.5" fill="#FFFFFF"/>
<polygon points="90,209.5 80,214.5 80,205.5 90,200.5" fill="#C6C8CC"/>
<polygon points="70,190.5 90,200.5 80,205.5 60,195.5" fill="#FFFFFF"/>
<polygon points="62.99,201.06 76.99,208.06 76.99,204.72 62.99,197.72" fill="#56627F"/>
<ellipse cx="64.4" cy="206.4" rx="2.4" ry="2.4" fill="#121829"/>
<ellipse cx="75.6" cy="212" rx="2.4" ry="2.4" fill="#121829"/>
<polygon points="67.99,206.5 71.99,208.5 71.99,202.5 67.99,200.5" fill="#E5484D"/>
<polygon points="65.99,203.5 73.99,207.5 73.99,205.5 65.99,201.5" fill="#E5484D"/>
<ellipse cx="132.52" cy="237.7" rx="7" ry="3.47" fill="#121829" opacity="0.18"/>
<rect x="128.72" y="229" width="2.56" height="8" rx="1" fill="#8E6443"/>
<circle cx="130" cy="223.4" r="7.2" fill="#5DB167"/>
<circle cx="128.7" cy="221.96" r="5.76" fill="#67C66F"/>
<circle cx="126.98" cy="220.38" r="2.3" fill="#95D79A"/>
</svg>
