<svg xmlns="http://www.w3.org/2000/svg" width="64" height="64" viewBox="0 0 64 64">
<path d="M16 8h32a6 6 0 0 1 6 6v40a6 6 0 0 1 -6 6h-32a6 6 0 0 1 -6 -6v-40a6 6 0 0 1 6 -6z" fill="#B98A5E"/>
<path d="M17 14h30a3 3 0 0 1 3 3v36a3 3 0 0 1 -3 3h-30a3 3 0 0 1 -3 -3v-36a3 3 0 0 1 3 -3z" fill="#F2E1BE"/>
<path d="M25 4h14a3 3 0 0 1 3 3v4a3 3 0 0 1 -3 3h-14a3 3 0 0 1 -3 -3v-4a3 3 0 0 1 3 -3z" fill="#9CA6BE"/>
<path d="M20 26 l4 4 l8 -8 M36 28 H44 M20 42 l4 4 l8 -8 M36 44 H44" fill="none" stroke="#3E9A4B" stroke-width="3.5" stroke-linecap="round" stroke-linejoin="round"/>
</svg>
