<svg xmlns="http://www.w3.org/2000/svg" width="64" height="64" viewBox="0 0 64 64">
<rect x="9" y="32" width="2" height="30" rx="0" fill="#9CA6BE"/>
<path d="M7 38h6a2 2 0 0 1 2 2v12a2 2 0 0 1 -2 2h-6a2 2 0 0 1 -2 -2v-12a2 2 0 0 1 2 -2z" fill="#E5484D"/>
<rect x="23" y="22" width="2" height="40" rx="0" fill="#9CA6BE"/>
<path d="M21 28h6a2 2 0 0 1 2 2v22a2 2 0 0 1 -2 2h-6a2 2 0 0 1 -2 -2v-22a2 2 0 0 1 2 -2z" fill="#67C66F"/>
<rect x="37" y="28" width="2" height="34" rx="0" fill="#9CA6BE"/>
<path d="M35 34h6a2 2 0 0 1 2 2v16a2 2 0 0 1 -2 2h-6a2 2 0 0 1 -2 -2v-16a2 2 0 0 1 2 -2z" fill="#67C66F"/>
<rect x="51" y="14" width="2" height="48" rx="0" fill="#9CA6BE"/>
<path d="M49 20h6a2 2 0 0 1 2 2v30a2 2 0 0 1 -2 2h-6a2 2 0 0 1 -2 -2v-30a2 2 0 0 1 2 -2z" fill="#67C66F"/>
</svg>
