<svg xmlns="http://www.w3.org/2000/svg" width="64" height="64" viewBox="0 0 64 64">
<path d="M22 4h20a10 10 0 0 1 10 10v26a10 10 0 0 1 -10 10h-20a10 10 0 0 1 -10 -10v-26a10 10 0 0 1 10 -10z" fill="#2EC4B6"/>
<path d="M21 10h22a4 4 0 0 1 4 4v8a4 4 0 0 1 -4 4h-22a4 4 0 0 1 -4 -4v-8a4 4 0 0 1 4 -4z" fill="#91D4F3"/>
<rect x="12" y="30" width="40" height="4" rx="0" fill="#FFFFFF"/>
<circle cx="21" cy="41" r="3.5" fill="#F6B93B"/>
<circle cx="43" cy="41" r="3.5" fill="#F6B93B"/>
<path d="M20 50 L12 60 M44 50 L52 60" fill="none" stroke="#56627F" stroke-width="4.5" stroke-linecap="round" stroke-linejoin="round"/>
<path d="M16 57 H48" fill="none" stroke="#56627F" stroke-width="3" stroke-linecap="round" stroke-linejoin="round"/>
</svg>
